<?xml version="1.0" encoding="UTF-8" standalone="no"?>
<svg
   xmlns:dc="http://purl.org/dc/elements/1.1/"
   xmlns:cc="http://creativecommons.org/ns#"
   xmlns:rdf="http://www.w3.org/1999/02/22-rdf-syntax-ns#"
   xmlns:svg="http://www.w3.org/2000/svg"
   xmlns="http://www.w3.org/2000/svg"
   xmlns:sodipodi="http://sodipodi.sourceforge.net/DTD/sodipodi-0.dtd"
   xmlns:inkscape="http://www.inkscape.org/namespaces/inkscape"
   version="1.1"
   id="Layer_1"
   x="0px"
   y="0px"
   viewBox="0 0 206.59 83.839996"
   xml:space="preserve"
   sodipodi:docname="ekan-db-single.svg"
   width="206.59"
   height="83.839996"
   inkscape:version="1.0.1 (3bc2e813f5, 2020-09-07)"><metadata
   id="metadata306"><rdf:RDF><cc:Work
       rdf:about=""><dc:format>image/svg+xml</dc:format><dc:type
         rdf:resource="http://purl.org/dc/dcmitype/StillImage" /><dc:title></dc:title></cc:Work></rdf:RDF></metadata><defs
   id="defs304" /><sodipodi:namedview
   pagecolor="#ffffff"
   bordercolor="#666666"
   borderopacity="1"
   objecttolerance="10"
   gridtolerance="10"
   guidetolerance="10"
   inkscape:pageopacity="0"
   inkscape:pageshadow="2"
   inkscape:window-width="1482"
   inkscape:window-height="947"
   id="namedview302"
   showgrid="false"
   fit-margin-top="0"
   fit-margin-left="0"
   fit-margin-right="0"
   fit-margin-bottom="0"
   inkscape:zoom="1.3611111"
   inkscape:cx="304.43"
   inkscape:cy="47.656625"
   inkscape:window-x="399"
   inkscape:window-y="27"
   inkscape:window-maximized="0"
   inkscape:current-layer="Layer_1" />
<style
   type="text/css"
   id="style177">
	.st0{fill:#3178B7;}
	.st1{fill:#1D5485;}
	.st2{fill:#0B2342;}
	.st3{fill:#2F54A3;}
	.st4{fill:#FFFFFF;}
</style>


<g
   id="g215"
   transform="translate(-91.57,-181.91)">
	<path
   class="st1"
   d="m 137.12,243.18 h -34.08 c 0.29,3.91 1.56,7.02 3.81,9.33 2.25,2.28 5.13,3.42 8.64,3.42 2.73,0 5,-0.65 6.79,-1.95 1.76,-1.3 3.76,-3.71 6.01,-7.23 l 9.28,5.18 c -1.43,2.44 -2.95,4.53 -4.54,6.27 -1.6,1.74 -3.3,3.17 -5.13,4.3 -1.82,1.12 -3.79,1.94 -5.91,2.47 -2.12,0.52 -4.41,0.78 -6.88,0.78 -7.1,0 -12.79,-2.28 -17.09,-6.84 -4.3,-4.59 -6.45,-10.68 -6.45,-18.26 0,-7.52 2.08,-13.61 6.25,-18.26 4.2,-4.59 9.77,-6.88 16.7,-6.88 7,0 12.53,2.23 16.6,6.69 4.04,4.43 6.05,10.56 6.05,18.41 z m -11.28,-8.98 c -1.53,-5.86 -5.22,-8.79 -11.08,-8.79 -1.33,0 -2.59,0.2 -3.76,0.61 -1.17,0.41 -2.24,0.99 -3.2,1.76 -0.96,0.77 -1.78,1.68 -2.47,2.76 -0.69,1.08 -1.21,2.29 -1.56,3.66 z"
   id="path207" />
	<path
   class="st1"
   d="m 160.12,181.91 v 50.29 l 15.48,-15.38 h 14.75 l -20.65,19.97 22.17,27.59 H 177.6 l -15.72,-20.07 -1.76,1.76 v 18.31 h -10.99 v -82.47 z"
   id="path209" />
	<path
   class="st1"
   d="m 232.29,216.82 h 11.04 v 47.56 h -11.04 v -4.98 c -4.53,4.23 -9.39,6.35 -14.6,6.35 -6.58,0 -12.01,-2.38 -16.31,-7.13 -4.26,-4.85 -6.4,-10.9 -6.4,-18.16 0,-7.13 2.13,-13.07 6.4,-17.82 4.26,-4.75 9.6,-7.13 16.02,-7.13 5.53,0 10.5,2.28 14.89,6.84 z m -26.08,23.63 c 0,4.56 1.22,8.27 3.66,11.13 2.51,2.9 5.66,4.35 9.47,4.35 4.07,0 7.36,-1.4 9.86,-4.2 2.51,-2.9 3.76,-6.58 3.76,-11.04 0,-4.46 -1.25,-8.14 -3.76,-11.04 -2.51,-2.83 -5.76,-4.25 -9.77,-4.25 -3.78,0 -6.93,1.43 -9.47,4.3 -2.5,2.91 -3.75,6.49 -3.75,10.75 z"
   id="path211" />
	<path
   class="st1"
   d="m 257.19,216.82 h 11.04 v 4.39 c 3.84,-3.81 8.17,-5.71 12.99,-5.71 5.53,0 9.85,1.74 12.94,5.22 2.67,2.96 4,7.8 4,14.5 v 29.15 h -11.04 v -26.56 c 0,-4.69 -0.65,-7.93 -1.95,-9.72 -1.27,-1.82 -3.58,-2.73 -6.93,-2.73 -3.65,0 -6.23,1.2 -7.76,3.61 -1.5,2.38 -2.25,6.53 -2.25,12.45 v 22.95 h -11.04 z"
   id="path213" />
</g>









<g
   id="g289"
   transform="translate(-91.57,-181.91)">
</g>
<g
   id="g291"
   transform="translate(-91.57,-181.91)">
</g>
<g
   id="g293"
   transform="translate(-91.57,-181.91)">
</g>
<g
   id="g295"
   transform="translate(-91.57,-181.91)">
</g>
<g
   id="g297"
   transform="translate(-91.57,-181.91)">
</g>
<g
   id="g299"
   transform="translate(-91.57,-181.91)">
</g>
</svg>
